
        <svg xmlns="http://www.w3.org/2000/svg" xmlns:xlink="http://www.w3.org/1999/xlink" version="1.1" width="3257.19354260767" height="1187.285905840369" viewBox="0 0 3257.19354260767 1187.285905840369">
			
			<g transform="scale(12.859677130383515) translate(10, 10)">
				<defs id="SvgjsDefs1641"/><g id="SvgjsG1642" featureKey="G09qjj-0" transform="matrix(1.1856977630706458,0,0,1.1856977630706458,-0.008177725050475034,0)" fill="#fff"><title xmlns="http://www.w3.org/2000/svg">55 -Guitar Feather- (sound, audio, play, music)</title><desc xmlns="http://www.w3.org/2000/svg">Created with Sketch.</desc><g xmlns="http://www.w3.org/2000/svg" stroke="none" stroke-width="1" fill-rule="evenodd"><g transform="translate(-599.000000, -950.000000)"><g transform="translate(599.000000, 950.000000)"><path d="M25.0022,7 C25.5542,7 26.0022,7.448 26.0022,8 C26.0022,8.552 25.5542,9 25.0022,9 C24.4502,9 24.0022,8.552 24.0022,8 C24.0022,7.448 24.4502,7 25.0022,7 L25.0022,7 Z M30.0022,5 C30.5542,5 31.0022,5.448 31.0022,6 C31.0022,6.552 30.5542,7 30.0022,7 C29.4502,7 29.0022,6.552 29.0022,6 C29.0022,5.448 29.4502,5 30.0022,5 L30.0022,5 Z M35.0022,7 C35.5542,7 36.0022,7.448 36.0022,8 C36.0022,8.552 35.5542,9 35.0022,9 C34.4502,9 34.0022,8.552 34.0022,8 C34.0022,7.448 34.4502,7 35.0022,7 L35.0022,7 Z M57.2872,27.062 C58.1492,25.106 58.8302,23.374 59.2742,22.011 C61.4842,15.229 58.5702,7.906 52.3452,4.601 C47.0022,1.763 38.4402,0 30.0022,0 C21.5642,0 13.0022,1.763 7.6592,4.601 C3.7442,6.68 1.1412,10.348 0.2962,14.471 L57.2872,27.062 Z"/><path d="M1.5807,24.3469 C6.0157,35.6279 19.6977,59.9999 30.0027,59.9989 L30.0027,59.9989 C37.4337,59.9989 46.6187,47.3249 52.8297,36.0239 L1.5807,24.3469 Z"/><path d="M0.7298,22.0107 C0.7398,22.0417 0.7538,22.0787 0.7638,22.1107 L53.8138,34.1977 C54.7858,32.3597 55.6698,30.5807 56.4428,28.9237 L0.0388,16.4627 C-0.0802,18.2917 0.1298,20.1697 0.7298,22.0107"/></g></g></g></g><g id="SvgjsG1643" featureKey="0yvIkK-0" transform="matrix(1.2818680182962991,0,0,1.2818680182962991,90.35906660209416,16.82153860854688)" fill="#fff"><path d="M5.7 8.9 l0 8.32 l2.2 0 l0 2.78 l-7.4 0 l0 -2.78 l2.2 0 l0 -4.94 l-1.8 0.38 l0 -2.76 z M13.52 19.68 l0 -2.8 c1.32 0.4 2.98 0.48 4.34 0.48 c0.54 0 0.96 -0.02 1.26 -0.08 c0.28 -0.04 0.42 -0.14 0.42 -0.28 c0 -0.06 -0.02 -0.1 -0.06 -0.16 c-0.2 -0.2 -0.64 -0.3 -0.9 -0.36 s-0.6 -0.14 -1.02 -0.22 c-0.34 -0.06 -0.74 -0.14 -1.2 -0.24 c-1.56 -0.34 -2.76 -1.22 -2.76 -2.9 c0 -2.48 2.42 -3.22 4.46 -3.22 c1.28 0 2.56 0.18 3.82 0.44 l0 2.82 c-1.26 -0.38 -2.68 -0.48 -4 -0.48 c-0.52 0 -0.88 0.02 -1.1 0.08 s-0.34 0.16 -0.34 0.28 c0 0.18 0.18 0.3 0.52 0.36 c0.34 0.08 0.82 0.18 1.4 0.28 c0.52 0.1 1.02 0.2 1.5 0.32 c1.48 0.38 2.54 1.18 2.54 2.78 c0 2.68 -2.7 3.34 -4.86 3.34 c-1.36 0 -2.7 -0.18 -4.02 -0.44 z M29.36 10.34 l0 2.78 l-2.8 0 l0 1.88 c0 1.54 1.02 2.32 2.5 2.32 c0.18 0 0.34 -0.02 0.48 -0.04 s0.26 -0.04 0.4 -0.06 l0 2.78 c-0.18 0.02 -0.32 0.06 -0.42 0.08 c-0.12 0.02 -0.32 0.02 -0.58 0.02 c-3.02 0 -5.38 -2.06 -5.38 -5.1 l0 -7.4 l3 0 l0 2.74 l2.8 0 z M35.8 17.32 c1.46 0 2.3 -0.86 2.3 -2.32 s-0.84 -2.32 -2.3 -2.32 s-2.3 0.86 -2.3 2.32 s0.84 2.32 2.3 2.32 z M35.8 20.1 c-3.08 0 -5.3 -2.04 -5.3 -5.1 c0 -3.16 2.3 -5.1 5.3 -5.1 c3.1 0 5.3 2.04 5.3 5.1 c0 3.14 -2.32 5.1 -5.3 5.1 z M45.519999999999996 15 c0 1.48 0.74 2.32 2.24 2.32 c0.42 0 0.8 -0.06 1.1 -0.2 c0.56 -0.22 0.94 -0.64 1.14 -1.22 c0.08 -0.28 0.12 -0.58 0.12 -0.9 s-0.04 -0.62 -0.12 -0.9 c-0.22 -0.62 -0.56 -0.96 -1.14 -1.24 c-0.3 -0.12 -0.68 -0.18 -1.1 -0.18 c-1.5 0 -2.24 0.84 -2.24 2.32 z M45.519999999999996 19 l0 5 l-3 0 l0 -9 c0 -3.2 2.26 -5.1 5.28 -5.1 c3.08 0 5.32 2.02 5.32 5.08 c0 2.84 -2.14 5.12 -4.98 5.12 c-0.58 0 -1.08 -0.1 -1.5 -0.3 c-0.44 -0.18 -0.82 -0.46 -1.12 -0.8 z M74.91999999999999 14.6 l0 5.4 l-3 0 l0 -5.4 c0 -1.14 -0.54 -1.92 -1.74 -1.92 c-1.18 0 -1.76 0.8 -1.76 1.92 l0 5.4 l-3 0 l0 -5.4 c0 -1.14 -0.58 -1.92 -1.78 -1.92 c-1.18 0 -1.72 0.8 -1.72 1.92 l0 5.4 l-3 0 l0 -5.4 c0 -2.9 1.98 -4.7 4.76 -4.7 c1.42 0 2.52 0.66 3.24 1.88 c0.72 -1.22 1.82 -1.88 3.24 -1.88 c2.88 0 4.76 1.9 4.76 4.7 z M83.79999999999998 10 l3 0 l0 5 c0 3.06 -2.12 5.1 -5.1 5.1 c-3.06 0 -5.1 -2.14 -5.1 -5.1 l0 -5 l3 0 l0 5 c0 1.34 0.68 2.32 2.1 2.32 c1.46 0 2.1 -0.96 2.1 -2.32 l0 -5 z M88.34 19.68 l0 -2.8 c1.32 0.4 2.98 0.48 4.34 0.48 c0.54 0 0.96 -0.02 1.26 -0.08 c0.28 -0.04 0.42 -0.14 0.42 -0.28 c0 -0.06 -0.02 -0.1 -0.06 -0.16 c-0.2 -0.2 -0.64 -0.3 -0.9 -0.36 s-0.6 -0.14 -1.02 -0.22 c-0.34 -0.06 -0.74 -0.14 -1.2 -0.24 c-1.56 -0.34 -2.76 -1.22 -2.76 -2.9 c0 -2.48 2.42 -3.22 4.46 -3.22 c1.28 0 2.56 0.18 3.82 0.44 l0 2.82 c-1.26 -0.38 -2.68 -0.48 -4 -0.48 c-0.52 0 -0.88 0.02 -1.1 0.08 s-0.34 0.16 -0.34 0.28 c0 0.18 0.18 0.3 0.52 0.36 c0.34 0.08 0.82 0.18 1.4 0.28 c0.52 0.1 1.02 0.2 1.5 0.32 c1.48 0.38 2.54 1.18 2.54 2.78 c0 2.68 -2.7 3.34 -4.86 3.34 c-1.36 0 -2.7 -0.18 -4.02 -0.44 z M98.54 10 l3 0 l0 10 l-3 0 l0 -10 z M100.04 9.06 c-1.02 0 -1.74 -0.72 -1.74 -1.74 c0 -1.04 0.72 -1.72 1.74 -1.72 c1.04 0 1.72 0.68 1.72 1.72 c0 1.06 -0.66 1.74 -1.72 1.74 z M111.5 16.7 l0 3 c-1.02 0.34 -2.08 0.44 -3.14 0.44 c-3.1 0 -5.3 -2.06 -5.3 -5.12 c0 -3.18 2.28 -5.12 5.3 -5.12 c1.06 0 2.12 0.1 3.14 0.44 l0 3 c-0.88 -0.46 -1.98 -0.58 -2.96 -0.58 c-0.66 0 -1.46 0.14 -1.92 0.66 c-0.42 0.42 -0.56 1.02 -0.56 1.58 c0 0.32 0.04 0.62 0.14 0.88 c0.08 0.28 0.22 0.52 0.42 0.72 c0.44 0.54 1.26 0.68 1.92 0.68 c0.88 0 2.18 -0.16 2.96 -0.58 z"/></g>
			</g>
		</svg>
	