<svg width="40" height="40" viewBox="0 0 40 40" fill="none" xmlns="http://www.w3.org/2000/svg">
<rect width="40" height="40" rx="20" fill="white"/>
<g clip-path="url(#clip0_0_958)">
<path d="M26.6667 25C27.5833 25 28.325 24.25 28.325 23.3333L28.3333 14.1667C28.3333 13.25 27.5833 12.5 26.6667 12.5H13.3333C12.4167 12.5 11.6667 13.25 11.6667 14.1667V23.3333C11.6667 24.25 12.4167 25 13.3333 25H10C10 25.9167 10.75 26.6667 11.6667 26.6667H28.3333C29.25 26.6667 30 25.9167 30 25H26.6667ZM13.3333 14.1667H26.6667V23.3333H13.3333V14.1667ZM20 25.8333C19.5417 25.8333 19.1667 25.4583 19.1667 25C19.1667 24.5417 19.5417 24.1667 20 24.1667C20.4583 24.1667 20.8333 24.5417 20.8333 25C20.8333 25.4583 20.4583 25.8333 20 25.8333Z" fill="#1C4980"/>
</g>
<defs>
<clipPath id="clip0_0_958">
<rect width="20" height="20" fill="white" transform="translate(10 10)"/>
</clipPath>
</defs>
</svg>
